<svg width="17" height="17" viewBox="0 0 17 17" fill="none" xmlns="http://www.w3.org/2000/svg">
<path fill-rule="evenodd" clip-rule="evenodd" d="M3.85485 0H0.764377L0.0113191 11.6411C-0.0342615 12.3273 0.0581354 13.0158 0.282771 13.6639C0.507407 14.3119 0.859484 14.9056 1.31714 15.4082C1.77479 15.9107 2.32825 16.3113 2.94314 16.5852C3.55803 16.859 4.22122 17.0002 4.89152 17H12.1091C12.7786 17.0001 13.4409 16.8592 14.0551 16.586C14.6693 16.3128 15.2222 15.913 15.6797 15.4116C16.1372 14.9101 16.4895 14.3176 16.7148 13.6708C16.9401 13.024 17.0335 12.3365 16.9893 11.6511L16.2265 0H3.85485ZM3.85485 1.00354H1.68369L0.989316 11.7113C0.953142 12.26 1.02721 12.8104 1.20693 13.3285C1.38664 13.8465 1.66818 14.3212 2.03406 14.7229C2.39994 15.1247 2.84238 15.4451 3.33392 15.6642C3.82546 15.8832 4.35562 15.9963 4.89152 15.9965H12.1091C12.6459 15.9977 13.1771 15.8856 13.6698 15.6672C14.1625 15.4487 14.6061 15.1285 14.973 14.7266C15.34 14.3247 15.6224 13.8496 15.8027 13.3308C15.983 12.8121 16.0574 12.2608 16.0211 11.7113L15.317 1.00354H13.1458V1.63577C13.1458 2.26176 13.0257 2.88162 12.7922 3.45996C12.5587 4.0383 12.2166 4.56379 11.7852 5.00643C11.3538 5.44907 10.8417 5.80019 10.2781 6.03974C9.71446 6.2793 9.11038 6.4026 8.50033 6.4026C7.89027 6.4026 7.28619 6.2793 6.72258 6.03974C6.15896 5.80019 5.64685 5.44907 5.21548 5.00643C4.7841 4.56379 4.44192 4.0383 4.20846 3.45996C3.975 2.88162 3.85485 2.26176 3.85485 1.63577V1.00354ZM12.1678 1.00354H4.83284V1.63577C4.83284 2.63386 5.21924 3.59106 5.90702 4.29681C6.59481 5.00257 7.52765 5.39906 8.50033 5.39906C9.47301 5.39906 10.4058 5.00257 11.0936 4.29681C11.7814 3.59106 12.1678 2.63386 12.1678 1.63577V1.00354Z" fill="black"/>
</svg>
