<svg width="17" height="12" viewBox="0 0 17 12" fill="none" xmlns="http://www.w3.org/2000/svg">
<path d="M0.508677 0C0.373768 0 0.244384 0.0421427 0.148988 0.117157C0.0535926 0.192172 0 0.293913 0 0.4C0 0.506087 0.0535926 0.607828 0.148988 0.682843C0.244384 0.757857 0.373768 0.8 0.508677 0.8H16.4913C16.6262 0.8 16.7556 0.757857 16.851 0.682843C16.9464 0.607828 17 0.506087 17 0.4C17 0.293913 16.9464 0.192172 16.851 0.117157C16.7556 0.0421427 16.6262 0 16.4913 0H0.508677ZM0 6C0 5.89391 0.0535926 5.79217 0.148988 5.71716C0.244384 5.64214 0.373768 5.6 0.508677 5.6H16.4913C16.6262 5.6 16.7556 5.64214 16.851 5.71716C16.9464 5.79217 17 5.89391 17 6C17 6.10609 16.9464 6.20783 16.851 6.28284C16.7556 6.35786 16.6262 6.4 16.4913 6.4H0.508677C0.373768 6.4 0.244384 6.35786 0.148988 6.28284C0.0535926 6.20783 0 6.10609 0 6ZM0 11.6C0 11.4939 0.0535926 11.3922 0.148988 11.3172C0.244384 11.2421 0.373768 11.2 0.508677 11.2H16.4913C16.6262 11.2 16.7556 11.2421 16.851 11.3172C16.9464 11.3922 17 11.4939 17 11.6C17 11.7061 16.9464 11.8078 16.851 11.8828C16.7556 11.9579 16.6262 12 16.4913 12H0.508677C0.373768 12 0.244384 11.9579 0.148988 11.8828C0.0535926 11.8078 0 11.7061 0 11.6Z" fill="black"/>
</svg>
