<svg width="57" height="22" viewBox="0 0 57 22" fill="none" xmlns="http://www.w3.org/2000/svg">
<path d="M5.125 0.179688V8H3.37939V0.179688H5.125ZM7.50439 0.179688V1.53857H1.04834V0.179688H7.50439ZM13.6167 3.32715V4.68066H9.56689V3.32715H13.6167ZM10.1201 0.179688V8H8.36914V0.179688H10.1201ZM14.8252 0.179688V8H13.0796V0.179688H14.8252ZM21.4424 6.64648V8H17.2798V6.64648H21.4424ZM17.876 0.179688V8H16.125V0.179688H17.876ZM20.9053 3.32715V4.6377H17.2798V3.32715H20.9053ZM21.4478 0.179688V1.53857H17.2798V0.179688H21.4478ZM29.0962 5.9375C29.0962 5.80501 29.0765 5.68685 29.0371 5.58301C28.9977 5.47559 28.9261 5.37712 28.8223 5.2876C28.7184 5.19808 28.5716 5.10856 28.3818 5.01904C28.1921 4.92594 27.9432 4.83105 27.6353 4.73438C27.2843 4.61979 26.9495 4.49089 26.6309 4.34766C26.3158 4.20085 26.0347 4.03076 25.7876 3.8374C25.5405 3.64404 25.3454 3.41846 25.2021 3.16064C25.0625 2.90283 24.9927 2.60205 24.9927 2.2583C24.9927 1.92529 25.0661 1.62451 25.2129 1.35596C25.3597 1.0874 25.5656 0.858236 25.8306 0.668457C26.0955 0.475098 26.4071 0.328288 26.7651 0.228027C27.1232 0.124186 27.5171 0.0722656 27.9468 0.0722656C28.5197 0.0722656 29.0228 0.174316 29.4561 0.378418C29.8929 0.578939 30.2331 0.861816 30.4766 1.22705C30.7201 1.5887 30.8418 2.00944 30.8418 2.48926H29.1016C29.1016 2.27799 29.0568 2.0918 28.9673 1.93066C28.8813 1.76595 28.7489 1.63704 28.5698 1.54395C28.3944 1.45085 28.1742 1.4043 27.9092 1.4043C27.6514 1.4043 27.4347 1.44368 27.2593 1.52246C27.0874 1.59766 26.9567 1.7015 26.8672 1.83398C26.7812 1.96647 26.7383 2.11149 26.7383 2.26904C26.7383 2.39437 26.7705 2.50895 26.835 2.61279C26.903 2.71305 26.9997 2.80794 27.125 2.89746C27.2539 2.9834 27.4115 3.06576 27.5977 3.14453C27.7839 3.22331 27.9969 3.2985 28.2368 3.37012C28.6558 3.5026 29.0264 3.64941 29.3486 3.81055C29.6745 3.97168 29.9484 4.1543 30.1704 4.3584C30.3924 4.5625 30.5589 4.79346 30.6699 5.05127C30.7845 5.30908 30.8418 5.60091 30.8418 5.92676C30.8418 6.27409 30.7738 6.58203 30.6377 6.85059C30.5052 7.11914 30.3118 7.34831 30.0576 7.53809C29.807 7.72428 29.5062 7.86572 29.1553 7.9624C28.8044 8.05908 28.4123 8.10742 27.979 8.10742C27.5851 8.10742 27.1966 8.05729 26.8135 7.95703C26.4303 7.85319 26.083 7.69564 25.7715 7.48438C25.4635 7.27311 25.2165 7.00456 25.0303 6.67871C24.8477 6.34928 24.7563 5.95898 24.7563 5.50781H26.5073C26.5073 5.74414 26.5413 5.94466 26.6094 6.10938C26.6774 6.27051 26.7741 6.4012 26.8994 6.50146C27.0283 6.60173 27.1841 6.67334 27.3667 6.71631C27.5493 6.75928 27.7534 6.78076 27.979 6.78076C28.2404 6.78076 28.4517 6.74495 28.6128 6.67334C28.7775 6.59814 28.8993 6.49609 28.978 6.36719C29.0568 6.23828 29.0962 6.09505 29.0962 5.9375ZM38.3237 0.179688V8H36.5781L33.624 2.9458V8H31.873V0.179688H33.624L36.5835 5.23389V0.179688H38.3237ZM46.1387 3.91797V4.26709C46.1387 4.86149 46.0563 5.39502 45.8916 5.86768C45.7305 6.34033 45.4995 6.74316 45.1987 7.07617C44.9015 7.40918 44.547 7.6652 44.1353 7.84424C43.7271 8.01969 43.2741 8.10742 42.7764 8.10742C42.2786 8.10742 41.8239 8.01969 41.4121 7.84424C41.0003 7.6652 40.6423 7.40918 40.3379 7.07617C40.0371 6.74316 39.8044 6.34033 39.6396 5.86768C39.4749 5.39502 39.3926 4.86149 39.3926 4.26709V3.91797C39.3926 3.32357 39.4749 2.79004 39.6396 2.31738C39.8044 1.84115 40.0353 1.43652 40.3325 1.10352C40.6333 0.770508 40.9896 0.516276 41.4014 0.34082C41.8132 0.161784 42.2679 0.0722656 42.7656 0.0722656C43.2633 0.0722656 43.7181 0.161784 44.1299 0.34082C44.5417 0.516276 44.8962 0.770508 45.1934 1.10352C45.4941 1.43652 45.7269 1.84115 45.8916 2.31738C46.0563 2.79004 46.1387 3.32357 46.1387 3.91797ZM44.3716 4.26709V3.90723C44.3716 3.50977 44.3358 3.15885 44.2642 2.85449C44.1925 2.54655 44.0887 2.28874 43.9526 2.08105C43.8166 1.87337 43.6483 1.71761 43.4478 1.61377C43.2472 1.50635 43.0199 1.45264 42.7656 1.45264C42.5007 1.45264 42.2697 1.50635 42.0728 1.61377C41.8758 1.71761 41.7093 1.87337 41.5732 2.08105C41.4408 2.28874 41.3387 2.54655 41.2671 2.85449C41.1991 3.15885 41.165 3.50977 41.165 3.90723V4.26709C41.165 4.66097 41.1991 5.01188 41.2671 5.31982C41.3387 5.62419 41.4425 5.882 41.5786 6.09326C41.7147 6.30452 41.8812 6.46387 42.0781 6.57129C42.2786 6.67871 42.5114 6.73242 42.7764 6.73242C43.0306 6.73242 43.2562 6.67871 43.4531 6.57129C43.6536 6.46387 43.8219 6.30452 43.958 6.09326C44.0941 5.882 44.1961 5.62419 44.2642 5.31982C44.3358 5.01188 44.3716 4.66097 44.3716 4.26709ZM49.0605 7.02246L50.6182 0.179688H51.5151L51.8696 1.02832L50.21 8H49.2271L49.0605 7.02246ZM48.4536 0.179688L49.7588 7.05469L49.5332 8H48.416L46.7188 0.179688H48.4536ZM52.9814 7.01709L54.2705 0.179688H56L54.3027 8H53.1963L52.9814 7.01709ZM52.1006 0.179688L53.6797 7.06006L53.4971 8H52.5195L50.833 1.02295L51.2036 0.179688H52.1006ZM4.87207 16.3931H2.13281L2.11816 14.7964H4.38135C4.78174 14.7964 5.10645 14.7476 5.35547 14.6499C5.60938 14.5522 5.79492 14.4106 5.91211 14.2251C6.0293 14.0347 6.08789 13.8003 6.08789 13.522C6.08789 13.2046 6.0293 12.9482 5.91211 12.7529C5.79492 12.5576 5.60938 12.416 5.35547 12.3281C5.10645 12.2354 4.78418 12.189 4.38867 12.189H2.99707V21H0.609375V10.3359H4.38867C5.02832 10.3359 5.59961 10.3945 6.10254 10.5117C6.60547 10.6289 7.03271 10.8096 7.38428 11.0537C7.74072 11.2979 8.01172 11.603 8.19727 11.9692C8.38281 12.3354 8.47559 12.7676 8.47559 13.2656C8.47559 13.7002 8.37793 14.1055 8.18262 14.4814C7.99219 14.8574 7.68457 15.1626 7.25977 15.397C6.83496 15.6313 6.26611 15.7583 5.55322 15.7778L4.87207 16.3931ZM4.77686 21H1.5249L2.38916 19.1543H4.77686C5.14307 19.1543 5.44092 19.0957 5.67041 18.9785C5.8999 18.8613 6.06836 18.7026 6.17578 18.5024C6.2832 18.3022 6.33691 18.0776 6.33691 17.8286C6.33691 17.5356 6.28564 17.2817 6.18311 17.0669C6.08545 16.8521 5.9292 16.686 5.71436 16.5688C5.50439 16.4517 5.22363 16.3931 4.87207 16.3931H2.7334L2.74805 14.7964H5.36279L5.91943 15.4263C6.59814 15.4116 7.14014 15.5215 7.54541 15.7559C7.95557 15.9854 8.25098 16.2881 8.43164 16.6641C8.6123 17.04 8.70264 17.438 8.70264 17.8579C8.70264 18.5513 8.55371 19.1323 8.25586 19.6011C7.95801 20.0649 7.51611 20.4141 6.93018 20.6484C6.34912 20.8828 5.63135 21 4.77686 21ZM19.1396 15.4336V15.9097C19.1396 16.7202 19.0273 17.4478 18.8027 18.0923C18.583 18.7368 18.2681 19.2861 17.8579 19.7402C17.4526 20.1943 16.9692 20.5435 16.4077 20.7876C15.8511 21.0269 15.2334 21.1465 14.5547 21.1465C13.876 21.1465 13.2559 21.0269 12.6943 20.7876C12.1328 20.5435 11.6445 20.1943 11.2295 19.7402C10.8193 19.2861 10.502 18.7368 10.2773 18.0923C10.0527 17.4478 9.94043 16.7202 9.94043 15.9097V15.4336C9.94043 14.623 10.0527 13.8955 10.2773 13.251C10.502 12.6016 10.8169 12.0498 11.2222 11.5957C11.6323 11.1416 12.1182 10.7949 12.6797 10.5557C13.2412 10.3115 13.8613 10.1895 14.54 10.1895C15.2188 10.1895 15.8389 10.3115 16.4004 10.5557C16.9619 10.7949 17.4453 11.1416 17.8506 11.5957C18.2607 12.0498 18.5781 12.6016 18.8027 13.251C19.0273 13.8955 19.1396 14.623 19.1396 15.4336ZM16.73 15.9097V15.4189C16.73 14.877 16.6812 14.3984 16.5835 13.9834C16.4858 13.5635 16.3442 13.2119 16.1587 12.9287C15.9731 12.6455 15.7437 12.4331 15.4702 12.2915C15.1968 12.145 14.8867 12.0718 14.54 12.0718C14.1787 12.0718 13.8638 12.145 13.5952 12.2915C13.3267 12.4331 13.0996 12.6455 12.9141 12.9287C12.7334 13.2119 12.5942 13.5635 12.4966 13.9834C12.4038 14.3984 12.3574 14.877 12.3574 15.4189V15.9097C12.3574 16.4468 12.4038 16.9253 12.4966 17.3452C12.5942 17.7603 12.7358 18.1118 12.9214 18.3999C13.1069 18.688 13.334 18.9053 13.6025 19.0518C13.876 19.1982 14.1934 19.2715 14.5547 19.2715C14.9014 19.2715 15.209 19.1982 15.4775 19.0518C15.751 18.9053 15.9805 18.688 16.166 18.3999C16.3516 18.1118 16.4907 17.7603 16.5835 17.3452C16.6812 16.9253 16.73 16.4468 16.73 15.9097ZM20.6045 10.3359H24.6987C25.5142 10.3359 26.2197 10.458 26.8154 10.7021C27.416 10.9463 27.8774 11.3076 28.1997 11.7861C28.522 12.2646 28.6831 12.8555 28.6831 13.5586C28.6831 14.1445 28.5879 14.6426 28.3975 15.0527C28.207 15.4629 27.9385 15.8022 27.5918 16.0708C27.25 16.3394 26.8496 16.5566 26.3906 16.7227L25.6143 17.1475H22.1279L22.1133 15.2944H24.7061C25.0625 15.2944 25.3579 15.231 25.5923 15.104C25.8267 14.9771 26.0024 14.7988 26.1196 14.5693C26.2417 14.335 26.3027 14.0615 26.3027 13.749C26.3027 13.4268 26.2417 13.1484 26.1196 12.9141C25.9976 12.6797 25.8169 12.5015 25.5776 12.3794C25.3433 12.2524 25.0503 12.189 24.6987 12.189H22.9922V21H20.6045V10.3359ZM26.5078 21L24.1128 16.2612L26.6323 16.2539L29.064 20.8901V21H26.5078ZM33.6782 21H31.3345L31.3491 19.1543H33.6782C34.2104 19.1543 34.6597 19.0322 35.0259 18.7881C35.3921 18.5391 35.6704 18.1729 35.8608 17.6895C36.0513 17.2012 36.1465 16.6079 36.1465 15.9097V15.4189C36.1465 14.8916 36.0928 14.4277 35.9854 14.0273C35.8779 13.6221 35.7192 13.2827 35.5093 13.0093C35.2993 12.7358 35.0381 12.5308 34.7256 12.394C34.418 12.2573 34.064 12.189 33.6636 12.189H31.2905V10.3359H33.6636C34.3862 10.3359 35.0454 10.458 35.6411 10.7021C36.2417 10.9463 36.7593 11.2954 37.1938 11.7495C37.6333 12.2036 37.9727 12.7407 38.2119 13.3608C38.4512 13.981 38.5708 14.6719 38.5708 15.4336V15.9097C38.5708 16.6665 38.4512 17.3574 38.2119 17.9824C37.9727 18.6025 37.6333 19.1396 37.1938 19.5938C36.7593 20.043 36.2441 20.3896 35.6484 20.6338C35.0527 20.8779 34.396 21 33.6782 21ZM32.6895 10.3359V21H30.3018V10.3359H32.6895ZM47.2793 19.1543V21H41.603V19.1543H47.2793ZM42.416 10.3359V21H40.0283V10.3359H42.416ZM46.5469 14.6279V16.415H41.603V14.6279H46.5469ZM47.2866 10.3359V12.189H41.603V10.3359H47.2866ZM48.4512 10.3359H52.5454C53.3608 10.3359 54.0664 10.458 54.6621 10.7021C55.2627 10.9463 55.7241 11.3076 56.0464 11.7861C56.3687 12.2646 56.5298 12.8555 56.5298 13.5586C56.5298 14.1445 56.4346 14.6426 56.2441 15.0527C56.0537 15.4629 55.7852 15.8022 55.4385 16.0708C55.0967 16.3394 54.6963 16.5566 54.2373 16.7227L53.4609 17.1475H49.9746L49.96 15.2944H52.5527C52.9092 15.2944 53.2046 15.231 53.439 15.104C53.6733 14.9771 53.8491 14.7988 53.9663 14.5693C54.0884 14.335 54.1494 14.0615 54.1494 13.749C54.1494 13.4268 54.0884 13.1484 53.9663 12.9141C53.8442 12.6797 53.6636 12.5015 53.4243 12.3794C53.1899 12.2524 52.897 12.189 52.5454 12.189H50.8389V21H48.4512V10.3359ZM54.3545 21L51.9595 16.2612L54.479 16.2539L56.9106 20.8901V21H54.3545Z" fill="#4374EF"/>
</svg>
